<svg width="20" height="16" viewBox="0 0 20 16" fill="none" xmlns="http://www.w3.org/2000/svg">
<path opacity="0.7" d="M2.72314 15.6602H17.0835C18.8267 15.6602 19.6899 14.7969 19.6899 13.0869V2.95166C19.6899 1.2417 18.8267 0.378418 17.0835 0.378418H2.72314C0.988281 0.378418 0.116699 1.2334 0.116699 2.95166V13.0869C0.116699 14.8052 0.988281 15.6602 2.72314 15.6602ZM2.73975 14.3237C1.90967 14.3237 1.45312 13.8838 1.45312 13.0205V3.01807C1.45312 2.15479 1.90967 1.71484 2.73975 1.71484H6.44189V14.3237H2.73975ZM17.0669 1.71484C17.8887 1.71484 18.3535 2.15479 18.3535 3.01807V13.0205C18.3535 13.8838 17.8887 14.3237 17.0669 14.3237H7.74512V1.71484H17.0669ZM4.84814 4.79443C5.09717 4.79443 5.32129 4.57031 5.32129 4.32959C5.32129 4.08057 5.09717 3.86475 4.84814 3.86475H3.06348C2.81445 3.86475 2.59863 4.08057 2.59863 4.32959C2.59863 4.57031 2.81445 4.79443 3.06348 4.79443H4.84814ZM4.84814 6.94434C5.09717 6.94434 5.32129 6.72021 5.32129 6.47119C5.32129 6.22217 5.09717 6.01465 4.84814 6.01465H3.06348C2.81445 6.01465 2.59863 6.22217 2.59863 6.47119C2.59863 6.72021 2.81445 6.94434 3.06348 6.94434H4.84814ZM4.84814 9.08594C5.09717 9.08594 5.32129 8.87842 5.32129 8.62939C5.32129 8.38037 5.09717 8.16455 4.84814 8.16455H3.06348C2.81445 8.16455 2.59863 8.38037 2.59863 8.62939C2.59863 8.87842 2.81445 9.08594 3.06348 9.08594H4.84814Z" fill="#F1F1F1"/>
</svg>
